<mxfile host="app.diagrams.net" modified="2023-11-24T16:14:32.656Z" agent="Mozilla/5.0 (Windows NT 10.0; Win64; x64) AppleWebKit/537.36 (KHTML, like Gecko) Chrome/118.0.0.0 Safari/537.36 OPR/104.0.0.0" etag="xQNumVzQKtcjp3l7nj73" version="22.1.3" type="github">
  <diagram name="Page-1" id="36LQyPhaArm6sBHxmckp">
    <mxGraphModel dx="1009" dy="573" grid="1" gridSize="10" guides="1" tooltips="1" connect="1" arrows="1" fold="1" page="1" pageScale="1" pageWidth="1169" pageHeight="827" math="0" shadow="0">
      <root>
        <mxCell id="0" />
        <mxCell id="1" parent="0" />
        <mxCell id="eQyV7goToJSxBuiNFL33-1" value="" style="endArrow=classic;html=1;rounded=0;" edge="1" parent="1">
          <mxGeometry width="50" height="50" relative="1" as="geometry">
            <mxPoint x="160" y="160" as="sourcePoint" />
            <mxPoint x="260" y="160" as="targetPoint" />
          </mxGeometry>
        </mxCell>
        <mxCell id="eQyV7goToJSxBuiNFL33-2" value="" style="ellipse;whiteSpace=wrap;html=1;aspect=fixed;" vertex="1" parent="1">
          <mxGeometry x="260" y="120" width="80" height="80" as="geometry" />
        </mxCell>
        <mxCell id="eQyV7goToJSxBuiNFL33-4" value="" style="ellipse;whiteSpace=wrap;html=1;aspect=fixed;" vertex="1" parent="1">
          <mxGeometry x="270" y="130" width="60" height="60" as="geometry" />
        </mxCell>
        <mxCell id="eQyV7goToJSxBuiNFL33-3" value="&lt;b&gt;Q0&lt;/b&gt;" style="text;html=1;strokeColor=none;fillColor=none;align=center;verticalAlign=middle;whiteSpace=wrap;rounded=0;fontSize=20;" vertex="1" parent="1">
          <mxGeometry x="270" y="145" width="60" height="30" as="geometry" />
        </mxCell>
        <mxCell id="eQyV7goToJSxBuiNFL33-5" value="" style="endArrow=classic;html=1;rounded=0;" edge="1" parent="1">
          <mxGeometry width="50" height="50" relative="1" as="geometry">
            <mxPoint x="340" y="159.5" as="sourcePoint" />
            <mxPoint x="440" y="159.5" as="targetPoint" />
          </mxGeometry>
        </mxCell>
        <mxCell id="eQyV7goToJSxBuiNFL33-6" value="" style="ellipse;whiteSpace=wrap;html=1;aspect=fixed;" vertex="1" parent="1">
          <mxGeometry x="440" y="120" width="80" height="80" as="geometry" />
        </mxCell>
        <mxCell id="eQyV7goToJSxBuiNFL33-7" value="&lt;b&gt;Q1&lt;/b&gt;" style="text;html=1;strokeColor=none;fillColor=none;align=center;verticalAlign=middle;whiteSpace=wrap;rounded=0;fontSize=20;" vertex="1" parent="1">
          <mxGeometry x="450" y="145" width="60" height="30" as="geometry" />
        </mxCell>
        <mxCell id="eQyV7goToJSxBuiNFL33-9" value="" style="ellipse;whiteSpace=wrap;html=1;aspect=fixed;" vertex="1" parent="1">
          <mxGeometry x="350" y="250" width="80" height="80" as="geometry" />
        </mxCell>
        <mxCell id="eQyV7goToJSxBuiNFL33-8" value="&lt;b&gt;Q2&lt;/b&gt;" style="text;html=1;strokeColor=none;fillColor=none;align=center;verticalAlign=middle;whiteSpace=wrap;rounded=0;fontSize=20;" vertex="1" parent="1">
          <mxGeometry x="360" y="275" width="60" height="30" as="geometry" />
        </mxCell>
        <mxCell id="eQyV7goToJSxBuiNFL33-10" value="" style="endArrow=classic;html=1;rounded=0;exitX=0.5;exitY=1;exitDx=0;exitDy=0;entryX=0;entryY=0.5;entryDx=0;entryDy=0;" edge="1" parent="1" source="eQyV7goToJSxBuiNFL33-2" target="eQyV7goToJSxBuiNFL33-9">
          <mxGeometry width="50" height="50" relative="1" as="geometry">
            <mxPoint x="350" y="169.5" as="sourcePoint" />
            <mxPoint x="450" y="169.5" as="targetPoint" />
          </mxGeometry>
        </mxCell>
        <mxCell id="eQyV7goToJSxBuiNFL33-11" value="&lt;b&gt;Start&lt;/b&gt;" style="text;html=1;strokeColor=none;fillColor=none;align=center;verticalAlign=middle;whiteSpace=wrap;rounded=0;fontSize=20;" vertex="1" parent="1">
          <mxGeometry x="160" y="120" width="60" height="30" as="geometry" />
        </mxCell>
        <mxCell id="eQyV7goToJSxBuiNFL33-13" value="&lt;b&gt;0&lt;/b&gt;" style="text;html=1;strokeColor=none;fillColor=none;align=center;verticalAlign=middle;whiteSpace=wrap;rounded=0;fontSize=20;" vertex="1" parent="1">
          <mxGeometry x="360" y="120" width="60" height="30" as="geometry" />
        </mxCell>
        <mxCell id="eQyV7goToJSxBuiNFL33-14" value="&lt;b&gt;1&lt;/b&gt;" style="text;html=1;strokeColor=none;fillColor=none;align=center;verticalAlign=middle;whiteSpace=wrap;rounded=0;fontSize=20;" vertex="1" parent="1">
          <mxGeometry x="280" y="230" width="60" height="30" as="geometry" />
        </mxCell>
        <mxCell id="eQyV7goToJSxBuiNFL33-16" value="" style="endArrow=classic;html=1;rounded=0;entryX=1;entryY=0.5;entryDx=0;entryDy=0;exitX=0.5;exitY=1;exitDx=0;exitDy=0;" edge="1" parent="1" source="eQyV7goToJSxBuiNFL33-6" target="eQyV7goToJSxBuiNFL33-9">
          <mxGeometry width="50" height="50" relative="1" as="geometry">
            <mxPoint x="350" y="169.5" as="sourcePoint" />
            <mxPoint x="450" y="169.5" as="targetPoint" />
          </mxGeometry>
        </mxCell>
        <mxCell id="eQyV7goToJSxBuiNFL33-17" value="" style="endArrow=classic;html=1;rounded=0;entryX=1;entryY=1;entryDx=0;entryDy=0;exitX=0;exitY=1;exitDx=0;exitDy=0;" edge="1" parent="1" source="eQyV7goToJSxBuiNFL33-6" target="eQyV7goToJSxBuiNFL33-2">
          <mxGeometry width="50" height="50" relative="1" as="geometry">
            <mxPoint x="350" y="169.5" as="sourcePoint" />
            <mxPoint x="450" y="169.5" as="targetPoint" />
          </mxGeometry>
        </mxCell>
        <mxCell id="eQyV7goToJSxBuiNFL33-18" value="&lt;b&gt;1&lt;/b&gt;" style="text;html=1;strokeColor=none;fillColor=none;align=center;verticalAlign=middle;whiteSpace=wrap;rounded=0;fontSize=20;" vertex="1" parent="1">
          <mxGeometry x="360" y="200" width="60" height="30" as="geometry" />
        </mxCell>
        <mxCell id="eQyV7goToJSxBuiNFL33-19" value="&lt;b&gt;0,1&lt;/b&gt;" style="text;html=1;strokeColor=none;fillColor=none;align=center;verticalAlign=middle;whiteSpace=wrap;rounded=0;fontSize=20;" vertex="1" parent="1">
          <mxGeometry x="460" y="230" width="60" height="30" as="geometry" />
        </mxCell>
      </root>
    </mxGraphModel>
  </diagram>
</mxfile>
